<svg xmlns="http://www.w3.org/2000/svg" viewBox="0 0 590 1440" width="100%" height="100%"><g xmlns="http://www.w3.org/2000/svg" transform="matrix(0 -1 1 0 -0 1440)"><defs><linearGradient id="gradient" x1="0%" y1="50%" x2="100%" y2="50%"><stop offset="5%" stop-color="#F78DA7"></stop><stop offset="95%" stop-color="#8ED1FC"></stop></linearGradient></defs><path d="M 0,600 L 0,150 C 119.06220095693783,139.40669856459328 238.12440191387566,128.8133971291866 325,131 C 411.87559808612434,133.1866028708134 466.56459330143537,148.15311004784687 550,167 C 633.4354066985646,185.84688995215313 745.6172248803829,208.57416267942583 838,201 C 930.3827751196171,193.42583732057417 1002.9665071770335,155.55023923444978 1100,142 C 1197.0334928229665,128.44976076555022 1318.5167464114834,139.2248803827751 1440,150 L 1440,600 L 0,600 Z" stroke="none" stroke-width="0" fill="url(#gradient)" fill-opacity="0.53" class="transition-all duration-300 ease-in-out delay-150 path-0"></path><defs><linearGradient id="gradient" x1="0%" y1="50%" x2="100%" y2="50%"><stop offset="5%" stop-color="#F78DA7"></stop><stop offset="95%" stop-color="#8ED1FC"></stop></linearGradient></defs><path d="M 0,600 L 0,350 C 109.27272727272728,335.28229665071774 218.54545454545456,320.5645933014354 302,337 C 385.45454545454544,353.4354066985646 443.0909090909091,401.02392344497605 544,409 C 644.9090909090909,416.97607655502395 789.0909090909089,385.3397129186603 902,357 C 1014.9090909090911,328.6602870813397 1096.5454545454547,303.61722488038276 1181,303 C 1265.4545454545453,302.38277511961724 1352.7272727272725,326.1913875598086 1440,350 L 1440,600 L 0,600 Z" stroke="none" stroke-width="0" fill="url(#gradient)" fill-opacity="1" class="transition-all duration-300 ease-in-out delay-150 path-1"></path></g></svg>